<?xml version="1.0" encoding="UTF-8"?>
<svg xmlns="http://www.w3.org/2000/svg" width="900" height="380">
<rect width="100%" height="100%" fill="#ffffff"/>
<text x="80" y="26" font-size="19" font-family="Helvetica" fill="#111">Lennar Revenue (Base 2021-2030)</text>
<line x1="80" y1="320.0" x2="870" y2="320.0" stroke="#e5e7eb"/>
<text x="70" y="324.0" text-anchor="end" font-size="11" font-family="Helvetica" fill="#555">25.8</text>
<line x1="80" y1="265.0" x2="870" y2="265.0" stroke="#e5e7eb"/>
<text x="70" y="269.0" text-anchor="end" font-size="11" font-family="Helvetica" fill="#555">29.0</text>
<line x1="80" y1="210.0" x2="870" y2="210.0" stroke="#e5e7eb"/>
<text x="70" y="214.0" text-anchor="end" font-size="11" font-family="Helvetica" fill="#555">32.2</text>
<line x1="80" y1="155.0" x2="870" y2="155.0" stroke="#e5e7eb"/>
<text x="70" y="159.0" text-anchor="end" font-size="11" font-family="Helvetica" fill="#555">35.4</text>
<line x1="80" y1="100.0" x2="870" y2="100.0" stroke="#e5e7eb"/>
<text x="70" y="104.0" text-anchor="end" font-size="11" font-family="Helvetica" fill="#555">38.5</text>
<line x1="80" y1="45.0" x2="870" y2="45.0" stroke="#e5e7eb"/>
<text x="70" y="49.0" text-anchor="end" font-size="11" font-family="Helvetica" fill="#555">41.7</text>
<line x1="80" y1="45" x2="80" y2="320" stroke="#333"/>
<line x1="80" y1="320" x2="870" y2="320" stroke="#333"/>
<polyline fill="none" stroke="#0f766e" stroke-width="3" points="80.0,297.1 167.8,184.0 255.6,174.3 343.3,153.6 431.1,175.1 518.9,157.4 606.7,133.1 694.4,107.9 782.2,88.2 870.0,67.9"/>
<circle cx="80.0" cy="297.1" r="4" fill="#0f766e"/>
<text x="80.0" y="342" text-anchor="middle" font-size="11" font-family="Helvetica" fill="#333">2021</text>
<text x="80.0" y="287.1" text-anchor="middle" font-size="10" font-family="Helvetica" fill="#0f172a">27.1</text>
<circle cx="167.8" cy="184.0" r="4" fill="#0f766e"/>
<text x="167.8" y="342" text-anchor="middle" font-size="11" font-family="Helvetica" fill="#333">2022</text>
<text x="167.8" y="174.0" text-anchor="middle" font-size="10" font-family="Helvetica" fill="#0f172a">33.7</text>
<circle cx="255.6" cy="174.3" r="4" fill="#0f766e"/>
<text x="255.6" y="342" text-anchor="middle" font-size="11" font-family="Helvetica" fill="#333">2023</text>
<text x="255.6" y="164.3" text-anchor="middle" font-size="10" font-family="Helvetica" fill="#0f172a">34.2</text>
<circle cx="343.3" cy="153.6" r="4" fill="#0f766e"/>
<text x="343.3" y="342" text-anchor="middle" font-size="11" font-family="Helvetica" fill="#333">2024</text>
<text x="343.3" y="143.6" text-anchor="middle" font-size="10" font-family="Helvetica" fill="#0f172a">35.4</text>
<circle cx="431.1" cy="175.1" r="4" fill="#0f766e"/>
<text x="431.1" y="342" text-anchor="middle" font-size="11" font-family="Helvetica" fill="#333">2025</text>
<text x="431.1" y="165.1" text-anchor="middle" font-size="10" font-family="Helvetica" fill="#0f172a">34.2</text>
<circle cx="518.9" cy="157.4" r="4" fill="#0f766e"/>
<text x="518.9" y="342" text-anchor="middle" font-size="11" font-family="Helvetica" fill="#333">2026</text>
<text x="518.9" y="147.4" text-anchor="middle" font-size="10" font-family="Helvetica" fill="#0f172a">35.2</text>
<circle cx="606.7" cy="133.1" r="4" fill="#0f766e"/>
<text x="606.7" y="342" text-anchor="middle" font-size="11" font-family="Helvetica" fill="#333">2027</text>
<text x="606.7" y="123.1" text-anchor="middle" font-size="10" font-family="Helvetica" fill="#0f172a">36.6</text>
<circle cx="694.4" cy="107.9" r="4" fill="#0f766e"/>
<text x="694.4" y="342" text-anchor="middle" font-size="11" font-family="Helvetica" fill="#333">2028</text>
<text x="694.4" y="97.9" text-anchor="middle" font-size="10" font-family="Helvetica" fill="#0f172a">38.1</text>
<circle cx="782.2" cy="88.2" r="4" fill="#0f766e"/>
<text x="782.2" y="342" text-anchor="middle" font-size="11" font-family="Helvetica" fill="#333">2029</text>
<text x="782.2" y="78.2" text-anchor="middle" font-size="10" font-family="Helvetica" fill="#0f172a">39.2</text>
<circle cx="870.0" cy="67.9" r="4" fill="#0f766e"/>
<text x="870.0" y="342" text-anchor="middle" font-size="11" font-family="Helvetica" fill="#333">2030</text>
<text x="870.0" y="57.9" text-anchor="middle" font-size="10" font-family="Helvetica" fill="#0f172a">40.4</text>
</svg>
