<?xml version="1.0" encoding="UTF-8"?>
<svg xmlns="http://www.w3.org/2000/svg" width="860" height="360">
<rect width="100%" height="100%" fill="#ffffff"/>
<text x="70" y="26" font-size="18" font-family="Helvetica" fill="#111">Lennar FCF Yield (%)</text>
<line x1="70" y1="305.0" x2="830" y2="305.0" stroke="#e5e7eb"/>
<text x="60" y="309.0" text-anchor="end" font-size="11" font-family="Helvetica" fill="#555">3.0%</text>
<line x1="70" y1="240.0" x2="830" y2="240.0" stroke="#e5e7eb"/>
<text x="60" y="244.0" text-anchor="end" font-size="11" font-family="Helvetica" fill="#555">5.5%</text>
<line x1="70" y1="175.0" x2="830" y2="175.0" stroke="#e5e7eb"/>
<text x="60" y="179.0" text-anchor="end" font-size="11" font-family="Helvetica" fill="#555">7.9%</text>
<line x1="70" y1="110.0" x2="830" y2="110.0" stroke="#e5e7eb"/>
<text x="60" y="114.0" text-anchor="end" font-size="11" font-family="Helvetica" fill="#555">10.4%</text>
<line x1="70" y1="45.0" x2="830" y2="45.0" stroke="#e5e7eb"/>
<text x="60" y="49.0" text-anchor="end" font-size="11" font-family="Helvetica" fill="#555">12.8%</text>
<line x1="70" y1="45" x2="70" y2="305" stroke="#333"/>
<line x1="70" y1="305" x2="830" y2="305" stroke="#333"/>
<polyline fill="none" stroke="#0f766e" stroke-width="3" points="70.0,45.0 260.0,129.4 450.0,232.4 640.0,71.6 830.0,305.0"/>
<circle cx="70.0" cy="45.0" r="4" fill="#0f766e"/>
<text x="70.0" y="325" text-anchor="middle" font-size="11" font-family="Helvetica" fill="#333">2021</text>
<text x="70.0" y="35.0" text-anchor="middle" font-size="11" font-family="Helvetica" fill="#0f172a">12.8%</text>
<circle cx="260.0" cy="129.4" r="4" fill="#0f766e"/>
<text x="260.0" y="325" text-anchor="middle" font-size="11" font-family="Helvetica" fill="#333">2022</text>
<text x="260.0" y="119.4" text-anchor="middle" font-size="11" font-family="Helvetica" fill="#0f172a">9.6%</text>
<circle cx="450.0" cy="232.4" r="4" fill="#0f766e"/>
<text x="450.0" y="325" text-anchor="middle" font-size="11" font-family="Helvetica" fill="#333">2023</text>
<text x="450.0" y="222.4" text-anchor="middle" font-size="11" font-family="Helvetica" fill="#0f172a">5.8%</text>
<circle cx="640.0" cy="71.6" r="4" fill="#0f766e"/>
<text x="640.0" y="325" text-anchor="middle" font-size="11" font-family="Helvetica" fill="#333">2024</text>
<text x="640.0" y="61.6" text-anchor="middle" font-size="11" font-family="Helvetica" fill="#0f172a">11.8%</text>
<circle cx="830.0" cy="305.0" r="4" fill="#0f766e"/>
<text x="830.0" y="325" text-anchor="middle" font-size="11" font-family="Helvetica" fill="#333">2025</text>
<text x="830.0" y="295.0" text-anchor="middle" font-size="11" font-family="Helvetica" fill="#0f172a">3.0%</text>
</svg>
