<?xml version="1.0" encoding="UTF-8"?>
<svg xmlns="http://www.w3.org/2000/svg" width="860" height="360">
<rect width="100%" height="100%" fill="#ffffff"/>
<text x="70" y="26" font-size="18" font-family="Helvetica" fill="#111">Lennar Gross Margin (%)</text>
<line x1="70" y1="305.0" x2="830" y2="305.0" stroke="#e5e7eb"/>
<text x="60" y="309.0" text-anchor="end" font-size="11" font-family="Helvetica" fill="#555">17.3%</text>
<line x1="70" y1="240.0" x2="830" y2="240.0" stroke="#e5e7eb"/>
<text x="60" y="244.0" text-anchor="end" font-size="11" font-family="Helvetica" fill="#555">19.5%</text>
<line x1="70" y1="175.0" x2="830" y2="175.0" stroke="#e5e7eb"/>
<text x="60" y="179.0" text-anchor="end" font-size="11" font-family="Helvetica" fill="#555">21.7%</text>
<line x1="70" y1="110.0" x2="830" y2="110.0" stroke="#e5e7eb"/>
<text x="60" y="114.0" text-anchor="end" font-size="11" font-family="Helvetica" fill="#555">23.9%</text>
<line x1="70" y1="45.0" x2="830" y2="45.0" stroke="#e5e7eb"/>
<text x="60" y="49.0" text-anchor="end" font-size="11" font-family="Helvetica" fill="#555">26.1%</text>
<line x1="70" y1="45" x2="70" y2="305" stroke="#333"/>
<line x1="70" y1="305" x2="830" y2="305" stroke="#333"/>
<polyline fill="none" stroke="#0f766e" stroke-width="3" points="70.0,76.2 260.0,45.0 450.0,220.1 640.0,280.3 830.0,305.0"/>
<circle cx="70.0" cy="76.2" r="4" fill="#0f766e"/>
<text x="70.0" y="325" text-anchor="middle" font-size="11" font-family="Helvetica" fill="#333">2021</text>
<text x="70.0" y="66.2" text-anchor="middle" font-size="11" font-family="Helvetica" fill="#0f172a">25.0%</text>
<circle cx="260.0" cy="45.0" r="4" fill="#0f766e"/>
<text x="260.0" y="325" text-anchor="middle" font-size="11" font-family="Helvetica" fill="#333">2022</text>
<text x="260.0" y="35.0" text-anchor="middle" font-size="11" font-family="Helvetica" fill="#0f172a">26.1%</text>
<circle cx="450.0" cy="220.1" r="4" fill="#0f766e"/>
<text x="450.0" y="325" text-anchor="middle" font-size="11" font-family="Helvetica" fill="#333">2023</text>
<text x="450.0" y="210.1" text-anchor="middle" font-size="11" font-family="Helvetica" fill="#0f172a">20.2%</text>
<circle cx="640.0" cy="280.3" r="4" fill="#0f766e"/>
<text x="640.0" y="325" text-anchor="middle" font-size="11" font-family="Helvetica" fill="#333">2024</text>
<text x="640.0" y="270.3" text-anchor="middle" font-size="11" font-family="Helvetica" fill="#0f172a">18.2%</text>
<circle cx="830.0" cy="305.0" r="4" fill="#0f766e"/>
<text x="830.0" y="325" text-anchor="middle" font-size="11" font-family="Helvetica" fill="#333">2025</text>
<text x="830.0" y="295.0" text-anchor="middle" font-size="11" font-family="Helvetica" fill="#0f172a">17.3%</text>
</svg>
