<?xml version="1.0" encoding="UTF-8"?>
<svg xmlns="http://www.w3.org/2000/svg" width="900" height="380">
<rect width="100%" height="100%" fill="#ffffff"/>
<text x="80" y="26" font-size="19" font-family="Helvetica" fill="#111">Lennar Gross Margin % (Base 2021-2030)</text>
<line x1="80" y1="320.0" x2="870" y2="320.0" stroke="#e5e7eb"/>
<text x="70" y="324.0" text-anchor="end" font-size="11" font-family="Helvetica" fill="#555">16.5%</text>
<line x1="80" y1="265.0" x2="870" y2="265.0" stroke="#e5e7eb"/>
<text x="70" y="269.0" text-anchor="end" font-size="11" font-family="Helvetica" fill="#555">18.6%</text>
<line x1="80" y1="210.0" x2="870" y2="210.0" stroke="#e5e7eb"/>
<text x="70" y="214.0" text-anchor="end" font-size="11" font-family="Helvetica" fill="#555">20.7%</text>
<line x1="80" y1="155.0" x2="870" y2="155.0" stroke="#e5e7eb"/>
<text x="70" y="159.0" text-anchor="end" font-size="11" font-family="Helvetica" fill="#555">22.8%</text>
<line x1="80" y1="100.0" x2="870" y2="100.0" stroke="#e5e7eb"/>
<text x="70" y="104.0" text-anchor="end" font-size="11" font-family="Helvetica" fill="#555">24.9%</text>
<line x1="80" y1="45.0" x2="870" y2="45.0" stroke="#e5e7eb"/>
<text x="70" y="49.0" text-anchor="end" font-size="11" font-family="Helvetica" fill="#555">27.0%</text>
<line x1="80" y1="45" x2="80" y2="320" stroke="#333"/>
<line x1="80" y1="320" x2="870" y2="320" stroke="#333"/>
<polyline fill="none" stroke="#0f766e" stroke-width="3" points="80.0,95.4 167.8,67.9 255.6,222.2 343.3,275.3 431.1,297.1 518.9,285.2 606.7,266.9 694.4,253.8 782.2,245.9 870.0,240.7"/>
<circle cx="80.0" cy="95.4" r="4" fill="#0f766e"/>
<text x="80.0" y="342" text-anchor="middle" font-size="11" font-family="Helvetica" fill="#333">2021</text>
<text x="80.0" y="85.4" text-anchor="middle" font-size="10" font-family="Helvetica" fill="#0f172a">25.0%</text>
<circle cx="167.8" cy="67.9" r="4" fill="#0f766e"/>
<text x="167.8" y="342" text-anchor="middle" font-size="11" font-family="Helvetica" fill="#333">2022</text>
<text x="167.8" y="57.9" text-anchor="middle" font-size="10" font-family="Helvetica" fill="#0f172a">26.1%</text>
<circle cx="255.6" cy="222.2" r="4" fill="#0f766e"/>
<text x="255.6" y="342" text-anchor="middle" font-size="11" font-family="Helvetica" fill="#333">2023</text>
<text x="255.6" y="212.2" text-anchor="middle" font-size="10" font-family="Helvetica" fill="#0f172a">20.2%</text>
<circle cx="343.3" cy="275.3" r="4" fill="#0f766e"/>
<text x="343.3" y="342" text-anchor="middle" font-size="11" font-family="Helvetica" fill="#333">2024</text>
<text x="343.3" y="265.3" text-anchor="middle" font-size="10" font-family="Helvetica" fill="#0f172a">18.2%</text>
<circle cx="431.1" cy="297.1" r="4" fill="#0f766e"/>
<text x="431.1" y="342" text-anchor="middle" font-size="11" font-family="Helvetica" fill="#333">2025</text>
<text x="431.1" y="287.1" text-anchor="middle" font-size="10" font-family="Helvetica" fill="#0f172a">17.3%</text>
<circle cx="518.9" cy="285.2" r="4" fill="#0f766e"/>
<text x="518.9" y="342" text-anchor="middle" font-size="11" font-family="Helvetica" fill="#333">2026</text>
<text x="518.9" y="275.2" text-anchor="middle" font-size="10" font-family="Helvetica" fill="#0f172a">17.8%</text>
<circle cx="606.7" cy="266.9" r="4" fill="#0f766e"/>
<text x="606.7" y="342" text-anchor="middle" font-size="11" font-family="Helvetica" fill="#333">2027</text>
<text x="606.7" y="256.9" text-anchor="middle" font-size="10" font-family="Helvetica" fill="#0f172a">18.5%</text>
<circle cx="694.4" cy="253.8" r="4" fill="#0f766e"/>
<text x="694.4" y="342" text-anchor="middle" font-size="11" font-family="Helvetica" fill="#333">2028</text>
<text x="694.4" y="243.8" text-anchor="middle" font-size="10" font-family="Helvetica" fill="#0f172a">19.0%</text>
<circle cx="782.2" cy="245.9" r="4" fill="#0f766e"/>
<text x="782.2" y="342" text-anchor="middle" font-size="11" font-family="Helvetica" fill="#333">2029</text>
<text x="782.2" y="235.9" text-anchor="middle" font-size="10" font-family="Helvetica" fill="#0f172a">19.3%</text>
<circle cx="870.0" cy="240.7" r="4" fill="#0f766e"/>
<text x="870.0" y="342" text-anchor="middle" font-size="11" font-family="Helvetica" fill="#333">2030</text>
<text x="870.0" y="230.7" text-anchor="middle" font-size="10" font-family="Helvetica" fill="#0f172a">19.5%</text>
</svg>
