<?xml version="1.0" encoding="UTF-8"?>
<svg xmlns="http://www.w3.org/2000/svg" width="900" height="380">
<rect width="100%" height="100%" fill="#ffffff"/>
<text x="80" y="26" font-size="19" font-family="Helvetica" fill="#111">Lennar FCF Yield % (Base 2021-2030)</text>
<line x1="80" y1="320.0" x2="870" y2="320.0" stroke="#e5e7eb"/>
<text x="70" y="324.0" text-anchor="end" font-size="11" font-family="Helvetica" fill="#555">2.1%</text>
<line x1="80" y1="265.0" x2="870" y2="265.0" stroke="#e5e7eb"/>
<text x="70" y="269.0" text-anchor="end" font-size="11" font-family="Helvetica" fill="#555">4.4%</text>
<line x1="80" y1="210.0" x2="870" y2="210.0" stroke="#e5e7eb"/>
<text x="70" y="214.0" text-anchor="end" font-size="11" font-family="Helvetica" fill="#555">6.7%</text>
<line x1="80" y1="155.0" x2="870" y2="155.0" stroke="#e5e7eb"/>
<text x="70" y="159.0" text-anchor="end" font-size="11" font-family="Helvetica" fill="#555">9.1%</text>
<line x1="80" y1="100.0" x2="870" y2="100.0" stroke="#e5e7eb"/>
<text x="70" y="104.0" text-anchor="end" font-size="11" font-family="Helvetica" fill="#555">11.4%</text>
<line x1="80" y1="45.0" x2="870" y2="45.0" stroke="#e5e7eb"/>
<text x="70" y="49.0" text-anchor="end" font-size="11" font-family="Helvetica" fill="#555">13.8%</text>
<line x1="80" y1="45" x2="80" y2="320" stroke="#333"/>
<line x1="80" y1="320" x2="870" y2="320" stroke="#333"/>
<polyline fill="none" stroke="#0f766e" stroke-width="3" points="80.0,67.9 167.8,142.3 255.6,233.1 343.3,91.4 431.1,297.1 518.9,174.1 606.7,148.0 694.4,123.4 782.2,103.2 870.0,89.7"/>
<circle cx="80.0" cy="67.9" r="4" fill="#0f766e"/>
<text x="80.0" y="342" text-anchor="middle" font-size="11" font-family="Helvetica" fill="#333">2021</text>
<text x="80.0" y="57.9" text-anchor="middle" font-size="10" font-family="Helvetica" fill="#0f172a">12.8%</text>
<circle cx="167.8" cy="142.3" r="4" fill="#0f766e"/>
<text x="167.8" y="342" text-anchor="middle" font-size="11" font-family="Helvetica" fill="#333">2022</text>
<text x="167.8" y="132.3" text-anchor="middle" font-size="10" font-family="Helvetica" fill="#0f172a">9.6%</text>
<circle cx="255.6" cy="233.1" r="4" fill="#0f766e"/>
<text x="255.6" y="342" text-anchor="middle" font-size="11" font-family="Helvetica" fill="#333">2023</text>
<text x="255.6" y="223.1" text-anchor="middle" font-size="10" font-family="Helvetica" fill="#0f172a">5.8%</text>
<circle cx="343.3" cy="91.4" r="4" fill="#0f766e"/>
<text x="343.3" y="342" text-anchor="middle" font-size="11" font-family="Helvetica" fill="#333">2024</text>
<text x="343.3" y="81.4" text-anchor="middle" font-size="10" font-family="Helvetica" fill="#0f172a">11.8%</text>
<circle cx="431.1" cy="297.1" r="4" fill="#0f766e"/>
<text x="431.1" y="342" text-anchor="middle" font-size="11" font-family="Helvetica" fill="#333">2025</text>
<text x="431.1" y="287.1" text-anchor="middle" font-size="10" font-family="Helvetica" fill="#0f172a">3.0%</text>
<circle cx="518.9" cy="174.1" r="4" fill="#0f766e"/>
<text x="518.9" y="342" text-anchor="middle" font-size="11" font-family="Helvetica" fill="#333">2026</text>
<text x="518.9" y="164.1" text-anchor="middle" font-size="10" font-family="Helvetica" fill="#0f172a">8.3%</text>
<circle cx="606.7" cy="148.0" r="4" fill="#0f766e"/>
<text x="606.7" y="342" text-anchor="middle" font-size="11" font-family="Helvetica" fill="#333">2027</text>
<text x="606.7" y="138.0" text-anchor="middle" font-size="10" font-family="Helvetica" fill="#0f172a">9.4%</text>
<circle cx="694.4" cy="123.4" r="4" fill="#0f766e"/>
<text x="694.4" y="342" text-anchor="middle" font-size="11" font-family="Helvetica" fill="#333">2028</text>
<text x="694.4" y="113.4" text-anchor="middle" font-size="10" font-family="Helvetica" fill="#0f172a">10.4%</text>
<circle cx="782.2" cy="103.2" r="4" fill="#0f766e"/>
<text x="782.2" y="342" text-anchor="middle" font-size="11" font-family="Helvetica" fill="#333">2029</text>
<text x="782.2" y="93.2" text-anchor="middle" font-size="10" font-family="Helvetica" fill="#0f172a">11.3%</text>
<circle cx="870.0" cy="89.7" r="4" fill="#0f766e"/>
<text x="870.0" y="342" text-anchor="middle" font-size="11" font-family="Helvetica" fill="#333">2030</text>
<text x="870.0" y="79.7" text-anchor="middle" font-size="10" font-family="Helvetica" fill="#0f172a">11.9%</text>
</svg>
