<?xml version="1.0" encoding="UTF-8"?>
<svg xmlns="http://www.w3.org/2000/svg" width="860" height="360">
<rect width="100%" height="100%" fill="#ffffff"/>
<text x="70" y="26" font-size="18" font-family="Helvetica" fill="#111">Lennar ROIC Proxy (%)</text>
<line x1="70" y1="305.0" x2="830" y2="305.0" stroke="#e5e7eb"/>
<text x="60" y="309.0" text-anchor="end" font-size="11" font-family="Helvetica" fill="#555">9.8%</text>
<line x1="70" y1="240.0" x2="830" y2="240.0" stroke="#e5e7eb"/>
<text x="60" y="244.0" text-anchor="end" font-size="11" font-family="Helvetica" fill="#555">13.8%</text>
<line x1="70" y1="175.0" x2="830" y2="175.0" stroke="#e5e7eb"/>
<text x="60" y="179.0" text-anchor="end" font-size="11" font-family="Helvetica" fill="#555">17.8%</text>
<line x1="70" y1="110.0" x2="830" y2="110.0" stroke="#e5e7eb"/>
<text x="60" y="114.0" text-anchor="end" font-size="11" font-family="Helvetica" fill="#555">21.8%</text>
<line x1="70" y1="45.0" x2="830" y2="45.0" stroke="#e5e7eb"/>
<text x="60" y="49.0" text-anchor="end" font-size="11" font-family="Helvetica" fill="#555">25.8%</text>
<line x1="70" y1="45" x2="70" y2="305" stroke="#333"/>
<line x1="70" y1="305" x2="830" y2="305" stroke="#333"/>
<polyline fill="none" stroke="#0f766e" stroke-width="3" points="70.0,45.0 260.0,79.4 450.0,159.6 640.0,166.6 830.0,305.0"/>
<circle cx="70.0" cy="45.0" r="4" fill="#0f766e"/>
<text x="70.0" y="325" text-anchor="middle" font-size="11" font-family="Helvetica" fill="#333">2021</text>
<text x="70.0" y="35.0" text-anchor="middle" font-size="11" font-family="Helvetica" fill="#0f172a">25.8%</text>
<circle cx="260.0" cy="79.4" r="4" fill="#0f766e"/>
<text x="260.0" y="325" text-anchor="middle" font-size="11" font-family="Helvetica" fill="#333">2022</text>
<text x="260.0" y="69.4" text-anchor="middle" font-size="11" font-family="Helvetica" fill="#0f172a">23.7%</text>
<circle cx="450.0" cy="159.6" r="4" fill="#0f766e"/>
<text x="450.0" y="325" text-anchor="middle" font-size="11" font-family="Helvetica" fill="#333">2023</text>
<text x="450.0" y="149.6" text-anchor="middle" font-size="11" font-family="Helvetica" fill="#0f172a">18.7%</text>
<circle cx="640.0" cy="166.6" r="4" fill="#0f766e"/>
<text x="640.0" y="325" text-anchor="middle" font-size="11" font-family="Helvetica" fill="#333">2024</text>
<text x="640.0" y="156.6" text-anchor="middle" font-size="11" font-family="Helvetica" fill="#0f172a">18.3%</text>
<circle cx="830.0" cy="305.0" r="4" fill="#0f766e"/>
<text x="830.0" y="325" text-anchor="middle" font-size="11" font-family="Helvetica" fill="#333">2025</text>
<text x="830.0" y="295.0" text-anchor="middle" font-size="11" font-family="Helvetica" fill="#0f172a">9.8%</text>
</svg>
